<svg xmlns="http://www.w3.org/2000/svg" viewBox="0 0 224.82 186.23"><defs><style>.cls-1{fill:#fff;}.cls-2{fill:#231f20;}.cls-3{fill:#fedd00;}.cls-4{fill:#848383;}.cls-5{fill:#edb100;}</style></defs><g id="Layer_2" data-name="Layer 2"><g id="Layer_1-2" data-name="Layer 1"><polygon class="cls-1" points="0.5 111.82 0.5 74.48 32.83 55.82 65.17 74.48 65.17 111.82 32.83 130.48 0.5 111.82"/><path class="cls-2" d="M32.83,56.39,64.66,74.77v36.76L32.83,129.91,1,111.53V74.77L32.83,56.39m0-1.15-.5.29L.5,73.91l-.5.28v37.92l.5.28,31.83,18.38.5.29.5-.29,31.83-18.38.5-.28V74.19l-.5-.28L33.33,55.53l-.5-.29Z"/><polygon class="cls-1" points="32.33 166.98 32.33 129.65 64.67 110.98 97 129.65 97 166.98 64.67 185.65 32.33 166.98"/><path class="cls-2" d="M64.66,111.56,96.5,129.94v36.75L64.66,185.07,32.83,166.69V129.94l31.83-18.38m0-1.16-.5.29L32.33,129.07l-.5.29v37.91l.5.29,31.83,18.38.5.29.5-.29L97,167.56l.5-.29V129.36l-.5-.29L65.16,110.69l-.5-.29Z"/><polygon class="cls-1" points="64.17 111.75 64.17 74.41 96.5 55.75 128.83 74.41 128.83 111.75 96.5 130.41 64.17 111.75"/><path class="cls-2" d="M96.5,56.32,128.33,74.7v36.76L96.5,129.84,64.66,111.46V74.7L96.5,56.32m0-1.15-.5.29L64.16,73.84l-.5.28V112l.5.28L96,130.7l.5.29.5-.29,31.83-18.38.5-.28V74.12l-.5-.28L97,55.46l-.5-.29Z"/><polygon class="cls-1" points="96 166.87 96 129.54 128.33 110.87 160.66 129.54 160.66 166.87 128.33 185.54 96 166.87"/><path class="cls-2" d="M128.33,111.45l31.83,18.38v36.75L128.33,185,96.5,166.58V129.83l31.83-18.38m0-1.16-.5.29L96,129l-.5.29v37.91l.5.29,31.83,18.38.5.29.5-.29,31.83-18.38.5-.29V129.25l-.5-.29-31.83-18.38-.5-.29Z"/><polygon class="cls-1" points="96 56.61 96 19.28 128.33 0.61 160.66 19.28 160.66 56.61 128.33 75.28 96 56.61"/><path class="cls-2" d="M128.33,1.19l31.83,18.38V56.33L128.33,74.7,96.5,56.33V19.57L128.33,1.19m0-1.15-.5.28L96,18.7l-.5.29V56.9l.5.29,31.83,18.38.5.29.5-.29,31.83-18.38.5-.29V19l-.5-.29L128.83.32l-.5-.28Z"/><polygon class="cls-1" points="127.83 111.75 127.83 74.41 160.16 55.75 192.49 74.41 192.49 111.75 160.16 130.41 127.83 111.75"/><path class="cls-2" d="M160.16,56.32,192,74.7v36.76l-31.83,18.38-31.83-18.38V74.7l31.83-18.38m0-1.15-.5.29L127.83,73.84l-.5.28V112l.5.28,31.83,18.38.5.29.5-.29,31.83-18.38.5-.28V74.12l-.5-.28L160.66,55.46l-.5-.29Z"/><polygon class="cls-1" points="159.66 56.58 159.66 19.25 191.99 0.58 224.32 19.25 224.32 56.58 191.99 75.25 159.66 56.58"/><path class="cls-2" d="M192,1.15l31.83,18.38V56.29L192,74.67,160.16,56.29V19.53L192,1.15M192,0l-.5.29L159.66,18.67l-.5.29V56.87l.5.29,31.83,18.37.5.29.5-.29,31.83-18.37.5-.29V19l-.5-.29L192.49.29,192,0Z"/><polygon class="cls-1" points="159.66 166.87 159.66 129.54 191.99 110.87 224.32 129.54 224.32 166.87 191.99 185.54 159.66 166.87"/><path class="cls-2" d="M192,111.45l31.83,18.38v36.75L192,185l-31.83-18.38V129.83L192,111.45m0-1.16-.5.29L159.66,129l-.5.29v37.91l.5.29,31.83,18.38.5.29.5-.29,31.83-18.38.5-.29V129.25l-.5-.29-31.83-18.38-.5-.29Z"/><polygon class="cls-3" points="1.5 111.2 1.5 75.02 32.83 56.93 64.17 75.02 64.17 111.2 32.83 129.29 1.5 111.2"/><path class="cls-2" d="M32.83,57.51l30.83,17.8v35.6l-30.83,17.8L2,110.91V75.31l30.83-17.8m0-1.15L1,74.73v36.76l31.83,18.38,31.83-18.38V74.73L32.83,56.36Z"/><polygon class="cls-4" points="6.74 108.19 6.74 78.02 32.87 62.94 59 78.02 59 108.19 32.87 123.28 6.74 108.19"/><path class="cls-2" d="M32.87,64.21l25,14.45v28.9L32.87,122l-25-14.45V78.66l25-14.45m0-2.54L5.64,77.39v31.44l27.23,15.72L60.1,108.83V77.39L32.87,61.67Z"/><circle class="cls-2" cx="33.01" cy="93.27" r="19.82" transform="translate(-20.55 10.08) rotate(-13.28)"/><circle class="cls-3" cx="33.01" cy="93.27" r="15.86"/><path class="cls-2" d="M24.87,92.38l4.76,4.76L40.86,85.91a1.06,1.06,0,0,1,1.39,0l1.86,1.86a1.19,1.19,0,0,1-.19,1.31c-.56.57-13.43,13.36-13.43,13.36a1.2,1.2,0,0,1-1.9,0c-1.07-1.06-6.74-6.85-6.74-6.85a1.18,1.18,0,0,1,0-1.63c.78-.77,1.43-1.47,1.43-1.47S24.16,91.66,24.87,92.38Z"/><polygon class="cls-3" points="33.33 166.37 33.33 130.19 64.67 112.1 96 130.19 96 166.37 64.67 184.46 33.33 166.37"/><path class="cls-2" d="M64.66,112.68l30.84,17.8v35.6l-30.84,17.8-30.83-17.8v-35.6l30.83-17.8m0-1.16L32.83,129.9v36.76L64.66,185,96.5,166.66V129.9L64.66,111.52Z"/><polygon class="cls-4" points="38.57 163.36 38.57 133.19 64.7 118.1 90.83 133.19 90.83 163.36 64.7 178.44 38.57 163.36"/><path class="cls-2" d="M64.7,119.37l25,14.45v28.9l-25,14.45-25-14.45v-28.9l25-14.45m0-2.54L37.47,132.55V164L64.7,179.71,91.93,164V132.55L64.7,116.83Z"/><circle class="cls-2" cx="64.85" cy="148.43" r="19.82" transform="translate(-32.37 18.87) rotate(-13.28)"/><circle class="cls-3" cx="64.85" cy="148.43" r="15.86"/><path class="cls-2" d="M60,140.13l4.93,4.9,5-4.9a.87.87,0,0,1,1.21,0L73,142s.59.82,0,1.42l-4.88,4.82,4.93,5s.49.82,0,1.34-1.78,1.83-1.78,1.83a1,1,0,0,1-1.42,0l-4.94-4.94L60,156.31a.92.92,0,0,1-1.39,0c-.74-.74-1.84-1.78-1.84-1.78s-.55-.79,0-1.34l4.93-4.92-4.82-4.92a1,1,0,0,1,0-1.44c.69-.7,1.73-1.71,1.73-1.71A.87.87,0,0,1,60,140.13Z"/><polygon class="cls-5" points="65.17 111.13 65.17 74.95 96.5 56.86 127.83 74.95 127.83 111.13 96.5 129.22 65.17 111.13"/><path class="cls-2" d="M96.5,57.44l30.83,17.8v35.6L96.5,128.64l-30.84-17.8V75.24L96.5,57.44m0-1.15L64.66,74.66v36.76L96.5,129.8l31.83-18.38V74.66L96.5,56.29Z"/><polygon class="cls-3" points="97 166.26 97 130.08 128.33 111.99 159.66 130.08 159.66 166.26 128.33 184.35 97 166.26"/><path class="cls-2" d="M128.33,112.57l30.83,17.8V166l-30.83,17.8L97.5,166v-35.6l30.83-17.8m0-1.16L96.5,129.79v36.76l31.83,18.37,31.83-18.37V129.79l-31.83-18.38Z"/><polygon class="cls-3" points="97 56 97 19.82 128.33 1.73 159.66 19.82 159.66 56 128.33 74.09 97 56"/><path class="cls-2" d="M128.33,2.31l30.83,17.8v35.6l-30.83,17.8L97.5,55.71V20.11l30.83-17.8m0-1.16L96.5,19.53V56.29l31.83,18.38,31.83-18.38V19.53L128.33,1.15Z"/><polygon class="cls-4" points="102.24 52.99 102.24 22.82 128.37 7.73 154.5 22.82 154.5 52.99 128.37 68.08 102.24 52.99"/><path class="cls-2" d="M128.37,9l25,14.45V52.36l-25,14.45-25-14.45V23.45L128.37,9m0-2.54L101.14,22.18V53.63l27.23,15.72L155.6,53.63V22.18L128.37,6.46Z"/><circle class="cls-2" cx="128.51" cy="38.06" r="19.82" transform="translate(-5.31 30.54) rotate(-13.28)"/><circle class="cls-3" cx="128.51" cy="38.06" r="15.86"/><path class="cls-2" d="M123.68,29.76l4.92,4.9,5-4.9a.87.87,0,0,1,1.21,0l1.83,1.83s.6.83,0,1.42l-4.88,4.83,4.93,5s.49.82,0,1.34S134.88,46,134.88,46a1,1,0,0,1-1.42,0l-5-4.94-4.83,4.89a.93.93,0,0,1-1.4,0c-.73-.73-1.83-1.78-1.83-1.78s-.56-.79,0-1.34,4.93-4.92,4.93-4.92L120.55,33a1,1,0,0,1,0-1.45c.7-.7,1.73-1.7,1.73-1.7A.89.89,0,0,1,123.68,29.76Z"/><polygon class="cls-3" points="128.83 111.13 128.83 74.95 160.16 56.86 191.49 74.95 191.49 111.13 160.16 129.22 128.83 111.13"/><path class="cls-2" d="M160.16,57.44,191,75.24v35.6l-30.83,17.8-30.83-17.8V75.24l30.83-17.8m0-1.15L128.33,74.66v36.76l31.83,18.38L192,111.42V74.66L160.16,56.29Z"/><polygon class="cls-4" points="134.07 108.12 134.07 77.95 160.2 62.87 186.33 77.95 186.33 108.12 160.2 123.21 134.07 108.12"/><path class="cls-2" d="M160.2,64.14l25,14.45v28.9l-25,14.45-25-14.45V78.59l25-14.45m0-2.55L133,77.32v31.44l27.23,15.72,27.23-15.72V77.32L160.2,61.59Z"/><circle class="cls-2" cx="160.34" cy="93.2" r="19.82" transform="translate(-17.12 39.33) rotate(-13.28)"/><circle class="cls-3" cx="160.34" cy="93.2" r="15.86"/><path class="cls-2" d="M152.2,92.3,157,97.07l11.23-11.23a1.06,1.06,0,0,1,1.39,0l1.86,1.86a1.19,1.19,0,0,1-.19,1.31c-.56.57-13.44,13.36-13.44,13.36a1.19,1.19,0,0,1-1.89,0c-1.07-1.06-6.74-6.85-6.74-6.85a1.18,1.18,0,0,1,0-1.63c.77-.77,1.43-1.47,1.43-1.47S151.48,91.59,152.2,92.3Z"/><polygon class="cls-3" points="160.66 55.96 160.66 19.78 191.99 1.7 223.32 19.78 223.32 55.96 191.99 74.05 160.66 55.96"/><path class="cls-2" d="M192,2.27l30.83,17.8v35.6L192,73.48,161.16,55.67V20.07L192,2.27m0-1.15L160.16,19.5V56.25L192,74.63l31.83-18.38V19.5L192,1.12Z"/><polygon class="cls-4" points="165.9 52.95 165.9 22.78 192.03 7.7 218.16 22.78 218.16 52.95 192.03 68.04 165.9 52.95"/><path class="cls-2" d="M192,9l25,14.45v28.9L192,66.77,167,52.32V23.42L192,9m0-2.54L164.8,22.15V53.59L192,69.31l27.23-15.72V22.15L192,6.43Z"/><circle class="cls-2" cx="192.17" cy="38.03" r="19.82" transform="translate(-3.6 45.17) rotate(-13.28)"/><circle class="cls-3" cx="192.17" cy="38.03" r="15.86"/><path class="cls-2" d="M184,37.14l4.76,4.76L200,30.67a1.07,1.07,0,0,1,1.39,0l1.86,1.86a1.2,1.2,0,0,1-.19,1.32L189.65,47.2a1.2,1.2,0,0,1-1.9,0c-1.07-1.06-6.74-6.85-6.74-6.85a1.18,1.18,0,0,1,0-1.63c.78-.77,1.43-1.47,1.43-1.47S183.32,36.42,184,37.14Z"/><polygon class="cls-5" points="160.66 166.26 160.66 130.08 191.99 111.99 223.32 130.08 223.32 166.26 191.99 184.35 160.66 166.26"/><path class="cls-2" d="M192,112.57l30.83,17.8V166L192,183.77,161.16,166v-35.6L192,112.57m0-1.16-31.83,18.38v36.76L192,184.92l31.83-18.37V129.79L192,111.41Z"/></g></g></svg>