<svg xmlns="http://www.w3.org/2000/svg" viewBox="0 0 445.65 349.19"><defs><style>.cls-1{fill:#fddd00;}.cls-2{fill:#231f20;}.cls-3{fill:#ecb21f;}.cls-4{fill:#c6c8ca;}</style></defs><g id="Layer_2" data-name="Layer 2"><g id="Layer_1-2" data-name="Layer 1"><polygon class="cls-1" points="191.49 54.85 191.49 18.67 222.82 0.58 254.16 18.67 254.16 54.85 222.82 72.94 191.49 54.85"/><path class="cls-2" d="M222.83,1.15,253.66,19v35.6l-30.83,17.8L192,54.56V19L222.83,1.15m0-1.15L191,18.38V55.13l31.84,18.38,31.83-18.38V18.38L222.83,0Z"/><polygon class="cls-1" points="382.49 165.12 382.49 128.94 413.82 110.85 445.15 128.94 445.15 165.12 413.82 183.21 382.49 165.12"/><path class="cls-2" d="M413.82,111.42l30.83,17.81v35.6l-30.83,17.8L383,164.83v-35.6l30.83-17.81m0-1.15L382,128.65V165.4l31.83,18.38,31.83-18.38V128.65l-31.83-18.38Z"/><polygon class="cls-3" points="96 330.52 96 294.34 127.33 276.25 158.66 294.34 158.66 330.52 127.33 348.61 96 330.52"/><path class="cls-2" d="M127.33,276.83l30.83,17.8v35.6L127.33,348,96.5,330.23v-35.6l30.83-17.8m0-1.16L95.5,294.05v36.76l31.83,18.38,31.83-18.38V294.05l-31.83-18.38Z"/><polygon class="cls-1" points="32.33 330.52 32.33 294.34 63.66 276.25 95 294.34 95 330.52 63.66 348.61 32.33 330.52"/><path class="cls-2" d="M63.66,276.83l30.84,17.8v35.6L63.66,348l-30.83-17.8v-35.6l30.83-17.8m0-1.16L31.83,294.05v36.76l31.83,18.38L95.5,330.81V294.05L63.66,275.67Z"/><polygon class="cls-1" points="159.66 330.52 159.66 294.34 190.99 276.25 222.32 294.34 222.32 330.52 190.99 348.61 159.66 330.52"/><path class="cls-2" d="M191,276.83l30.83,17.8v35.6L191,348l-30.83-17.8v-35.6L191,276.83m0-1.16-31.83,18.38v36.76L191,349.19l31.83-18.38V294.05L191,275.67Z"/><polygon class="cls-3" points="286.99 330.52 286.99 294.34 318.32 276.25 349.65 294.34 349.65 330.52 318.32 348.61 286.99 330.52"/><path class="cls-2" d="M318.32,276.83l30.83,17.8v35.6L318.32,348l-30.83-17.8v-35.6l30.83-17.8m0-1.16-31.83,18.38v36.76l31.83,18.38,31.83-18.38V294.05l-31.83-18.38Z"/><polygon class="cls-1" points="223.32 330.52 223.32 294.34 254.66 276.25 285.99 294.34 285.99 330.52 254.66 348.61 223.32 330.52"/><path class="cls-2" d="M254.66,276.83l30.83,17.8v35.6L254.66,348l-30.84-17.8v-35.6l30.84-17.8m0-1.16-31.84,18.38v36.76l31.84,18.38,31.83-18.38V294.05l-31.83-18.38Z"/><polygon class="cls-1" points="350.65 330.52 350.65 294.34 381.99 276.25 413.32 294.34 413.32 330.52 381.99 348.61 350.65 330.52"/><path class="cls-2" d="M382,276.83l30.83,17.8v35.6L382,348l-30.84-17.8v-35.6L382,276.83m0-1.16-31.84,18.38v36.76L382,349.19l31.83-18.38V294.05L382,275.67Z"/><polygon class="cls-1" points="64.16 275.39 64.16 239.21 95.5 221.12 126.83 239.21 126.83 275.39 95.5 293.48 64.16 275.39"/><path class="cls-2" d="M95.5,221.69l30.83,17.81v35.6L95.5,292.9,64.66,275.1V239.5L95.5,221.69m0-1.15L63.66,238.92v36.75L95.5,294.05l31.83-18.38V238.92L95.5,220.54Z"/><polygon class="cls-1" points="127.83 275.39 127.83 239.21 159.16 221.12 190.49 239.21 190.49 275.39 159.16 293.48 127.83 275.39"/><path class="cls-2" d="M159.16,221.69,190,239.5v35.6l-30.83,17.8-30.83-17.8V239.5l30.83-17.81m0-1.15-31.83,18.38v36.75l31.83,18.38L191,275.67V238.92l-31.83-18.38Z"/><polygon class="cls-1" points="255.16 275.39 255.16 239.21 286.49 221.12 317.82 239.21 317.82 275.39 286.49 293.48 255.16 275.39"/><path class="cls-2" d="M286.49,221.69l30.83,17.81v35.6l-30.83,17.8-30.83-17.8V239.5l30.83-17.81m0-1.15-31.83,18.38v36.75l31.83,18.38,31.83-18.38V238.92l-31.83-18.38Z"/><polygon class="cls-3" points="191.49 275.39 191.49 239.21 222.82 221.12 254.16 239.21 254.16 275.39 222.82 293.48 191.49 275.39"/><path class="cls-2" d="M222.82,221.69l30.84,17.81v35.6l-30.84,17.8L192,275.1V239.5l30.83-17.81m0-1.15L191,238.92v36.75l31.83,18.38,31.84-18.38V238.92l-31.84-18.38Z"/><polygon class="cls-1" points="318.82 275.39 318.82 239.21 350.15 221.12 381.49 239.21 381.49 275.39 350.15 293.48 318.82 275.39"/><path class="cls-2" d="M350.15,221.69,381,239.5v35.6l-30.84,17.8-30.83-17.8V239.5l30.83-17.81m0-1.15-31.83,18.38v36.75l31.83,18.38L382,275.67V238.92l-31.84-18.38Z"/><polygon class="cls-3" points="0.5 275.39 0.5 239.21 31.83 221.12 63.16 239.21 63.16 275.39 31.83 293.48 0.5 275.39"/><path class="cls-2" d="M31.83,221.69,62.66,239.5v35.6L31.83,292.9,1,275.1V239.5l30.83-17.81m0-1.15L0,238.92v36.75l31.83,18.38,31.83-18.38V238.92L31.83,220.54Z"/><polygon class="cls-3" points="382.49 275.39 382.49 239.21 413.82 221.12 445.15 239.21 445.15 275.39 413.82 293.48 382.49 275.39"/><path class="cls-2" d="M413.82,221.69l30.83,17.81v35.6l-30.83,17.8L383,275.1V239.5l30.83-17.81m0-1.15L382,238.92v36.75l31.83,18.38,31.83-18.38V238.92l-31.83-18.38Z"/><polygon class="cls-3" points="96 220.25 96 184.07 127.33 165.98 158.66 184.07 158.66 220.25 127.33 238.34 96 220.25"/><path class="cls-2" d="M127.33,166.56l30.83,17.8V220l-30.83,17.8L96.5,220v-35.6l30.83-17.8m0-1.16L95.5,183.78v36.76l31.83,18.38,31.83-18.38V183.78L127.33,165.4Z"/><polygon class="cls-1" points="159.66 220.25 159.66 184.07 190.99 165.98 222.32 184.07 222.32 220.25 190.99 238.34 159.66 220.25"/><path class="cls-2" d="M191,166.56l30.83,17.8V220L191,237.76,160.16,220v-35.6L191,166.56m0-1.16-31.83,18.38v36.76L191,238.92l31.83-18.38V183.78L191,165.4Z"/><polygon class="cls-3" points="223.32 220.25 223.32 184.07 254.66 165.98 285.99 184.07 285.99 220.25 254.66 238.34 223.32 220.25"/><path class="cls-2" d="M254.66,166.56l30.83,17.8V220l-30.83,17.8L223.82,220v-35.6l30.84-17.8m0-1.16-31.84,18.38v36.76l31.84,18.38,31.83-18.38V183.78L254.66,165.4Z"/><polygon class="cls-1" points="32.33 220.25 32.33 184.07 63.66 165.98 95 184.07 95 220.25 63.66 238.34 32.33 220.25"/><path class="cls-2" d="M63.66,166.56l30.84,17.8V220l-30.84,17.8L32.83,220v-35.6l30.83-17.8m0-1.16L31.83,183.78v36.76l31.83,18.38L95.5,220.54V183.78L63.66,165.4Z"/><polygon class="cls-1" points="64.16 165.12 64.16 128.94 95.5 110.85 126.83 128.94 126.83 165.12 95.5 183.21 64.16 165.12"/><path class="cls-2" d="M95.5,111.42l30.83,17.81v35.6L95.5,182.63l-30.84-17.8v-35.6L95.5,111.42m0-1.15L63.66,128.65V165.4L95.5,183.78l31.83-18.38V128.65L95.5,110.27Z"/><polygon class="cls-1" points="127.83 165.12 127.83 128.94 159.16 110.85 190.49 128.94 190.49 165.12 159.16 183.21 127.83 165.12"/><path class="cls-2" d="M159.16,111.42,190,129.23v35.6l-30.83,17.8-30.83-17.8v-35.6l30.83-17.81m0-1.15-31.83,18.38V165.4l31.83,18.38L191,165.4V128.65l-31.83-18.38Z"/><polygon class="cls-1" points="191.49 165.12 191.49 128.94 222.82 110.85 254.16 128.94 254.16 165.12 222.82 183.21 191.49 165.12"/><path class="cls-2" d="M222.82,111.42l30.84,17.81v35.6l-30.84,17.8L192,164.83v-35.6l30.83-17.81m0-1.15L191,128.65V165.4l31.83,18.38,31.84-18.38V128.65l-31.84-18.38Z"/><polygon class="cls-3" points="223.32 109.98 223.32 73.8 254.66 55.71 285.99 73.8 285.99 109.98 254.66 128.07 223.32 109.98"/><path class="cls-2" d="M254.66,56.29l30.83,17.8v35.6l-30.83,17.8-30.84-17.8V74.09l30.84-17.8m0-1.16L222.82,73.51v36.76l31.84,18.38,31.83-18.38V73.51L254.66,55.13Z"/><polygon class="cls-3" points="96 109.98 96 73.8 127.33 55.71 158.66 73.8 158.66 109.98 127.33 128.07 96 109.98"/><path class="cls-2" d="M127.33,56.29l30.83,17.8v35.6l-30.83,17.8L96.5,109.69V74.09l30.83-17.8m0-1.16L95.5,73.51v36.76l31.83,18.38,31.83-18.38V73.51L127.33,55.13Z"/><polygon class="cls-1" points="350.65 220.25 350.65 184.07 381.99 165.98 413.32 184.07 413.32 220.25 381.99 238.34 350.65 220.25"/><path class="cls-2" d="M382,166.56l30.83,17.8V220L382,237.76,351.15,220v-35.6L382,166.56m0-1.16-31.84,18.38v36.76L382,238.92l31.83-18.38V183.78L382,165.4Z"/><polygon class="cls-1" points="64.16 54.85 64.16 18.67 95.5 0.58 126.83 18.67 126.83 54.85 95.5 72.94 64.16 54.85"/><path class="cls-2" d="M95.5,1.15,126.33,19v35.6L95.5,72.36,64.66,54.56V19L95.5,1.15M95.5,0,63.66,18.38V55.13L95.5,73.51l31.83-18.38V18.38L95.5,0Z"/><polygon class="cls-1" points="286.99 109.98 286.99 73.8 318.32 55.71 349.65 73.8 349.65 109.98 318.32 128.07 286.99 109.98"/><path class="cls-2" d="M318.32,56.29l30.83,17.8v35.6l-30.83,17.8-30.83-17.8V74.09l30.83-17.8m0-1.16L286.49,73.51v36.76l31.83,18.38,31.83-18.38V73.51L318.32,55.13Z"/><polygon class="cls-1" points="318.82 54.85 318.82 18.67 350.15 0.58 381.49 18.67 381.49 54.85 350.15 72.94 318.82 54.85"/><path class="cls-2" d="M350.15,1.15,381,19v35.6l-30.84,17.8-30.83-17.8V19L350.15,1.15m0-1.15L318.32,18.38V55.13l31.83,18.38L382,55.13V18.38L350.15,0Z"/><polygon class="cls-1" points="64.16 165.12 64.16 128.94 95.5 110.85 126.83 128.94 126.83 165.12 95.5 183.21 64.16 165.12"/><path class="cls-2" d="M95.5,111.42l30.83,17.81v35.6L95.5,182.63l-30.84-17.8v-35.6L95.5,111.42m0-1.15L63.66,128.65V165.4L95.5,183.78l31.83-18.38V128.65L95.5,110.27Z"/><polygon class="cls-4" points="69.4 162.11 69.4 131.94 95.53 116.85 121.66 131.94 121.66 162.11 95.53 177.19 69.4 162.11"/><path class="cls-2" d="M95.53,118.12l25,14.45v28.9l-25,14.45-25-14.45v-28.9l25-14.45m0-2.54L68.3,131.3v31.44l27.23,15.72,27.23-15.72V131.3L95.53,115.58Z"/><circle class="cls-2" cx="95.68" cy="147.18" r="19.82" transform="translate(-31.26 25.92) rotate(-13.28)"/><circle class="cls-1" cx="95.68" cy="147.18" r="15.86"/><path class="cls-2" d="M90.84,138.87l4.93,4.91,5-4.91a.88.88,0,0,1,1.22,0l1.83,1.84s.59.82,0,1.42L98.92,147l4.93,5s.49.83,0,1.35-1.79,1.83-1.79,1.83a1,1,0,0,1-1.42,0l-4.94-4.94-4.84,4.89a.92.92,0,0,1-1.39,0c-.74-.74-1.83-1.78-1.83-1.78s-.56-.79,0-1.35L92.55,147l-4.83-4.92a1,1,0,0,1,0-1.44L89.45,139A.88.88,0,0,1,90.84,138.87Z"/><polygon class="cls-1" points="159.66 220.25 159.66 184.07 190.99 165.98 222.32 184.07 222.32 220.25 190.99 238.34 159.66 220.25"/><path class="cls-2" d="M191,166.56l30.83,17.8V220L191,237.76,160.16,220v-35.6L191,166.56m0-1.16-31.83,18.38v36.76L191,238.92l31.83-18.38V183.78L191,165.4Z"/><polygon class="cls-4" points="164.9 217.24 164.9 187.07 191.03 171.98 217.16 187.07 217.16 217.24 191.03 232.33 164.9 217.24"/><path class="cls-2" d="M191,173.25l25,14.45v28.91l-25,14.45-25-14.45V187.7l25-14.45m0-2.54L163.8,186.43v31.45L191,233.6l27.23-15.72V186.43L191,170.71Z"/><circle class="cls-2" cx="191.17" cy="202.32" r="19.82" transform="translate(-41.37 49.34) rotate(-13.28)"/><circle class="cls-1" cx="191.17" cy="202.32" r="15.86"/><path class="cls-2" d="M183,201.42l4.76,4.77L199,195a1.07,1.07,0,0,1,1.39,0l1.86,1.86a1.19,1.19,0,0,1-.19,1.31l-13.43,13.36a1.2,1.2,0,0,1-1.9,0c-1.07-1.07-6.74-6.85-6.74-6.85a1.19,1.19,0,0,1,0-1.63c.78-.77,1.43-1.47,1.43-1.47S182.32,200.71,183,201.42Z"/><polygon class="cls-1" points="64.16 275.39 64.16 239.21 95.5 221.12 126.83 239.21 126.83 275.39 95.5 293.48 64.16 275.39"/><path class="cls-2" d="M95.5,221.69l30.83,17.81v35.6L95.5,292.9,64.66,275.1V239.5L95.5,221.69m0-1.15L63.66,238.92v36.75L95.5,294.05l31.83-18.38V238.92L95.5,220.54Z"/><polygon class="cls-4" points="69.4 272.38 69.4 242.2 95.53 227.12 121.66 242.2 121.66 272.38 95.53 287.46 69.4 272.38"/><path class="cls-2" d="M95.53,228.39l25,14.45v28.9l-25,14.45-25-14.45v-28.9l25-14.45m0-2.54L68.3,241.57V273l27.23,15.72L122.76,273V241.57L95.53,225.85Z"/><circle class="cls-2" cx="95.68" cy="257.45" r="19.82" transform="translate(-56.59 28.87) rotate(-13.28)"/><circle class="cls-1" cx="95.68" cy="257.45" r="15.86"/><path class="cls-2" d="M87.54,256.56l4.76,4.76,11.22-11.23a1.08,1.08,0,0,1,1.4,0l1.86,1.86a1.21,1.21,0,0,1-.2,1.32L93.15,266.62a1.19,1.19,0,0,1-1.9,0c-1.06-1.06-6.73-6.85-6.73-6.85a1.16,1.16,0,0,1,0-1.62c.77-.78,1.43-1.48,1.43-1.48S86.82,255.84,87.54,256.56Z"/><polygon class="cls-1" points="223.32 330.52 223.32 294.34 254.66 276.25 285.99 294.34 285.99 330.52 254.66 348.61 223.32 330.52"/><path class="cls-2" d="M254.66,276.83l30.83,17.8v35.6L254.66,348l-30.84-17.8v-35.6l30.84-17.8m0-1.16-31.84,18.38v36.76l31.84,18.38,31.83-18.38V294.05l-31.83-18.38Z"/><polygon class="cls-4" points="228.56 327.51 228.56 297.34 254.69 282.25 280.82 297.34 280.82 327.51 254.69 342.6 228.56 327.51"/><path class="cls-2" d="M254.69,283.52l25,14.45v28.91l-25,14.45-25-14.45V298l25-14.45m0-2.54L227.46,296.7v31.45l27.23,15.72,27.23-15.72V296.7L254.69,281Z"/><circle class="cls-2" cx="254.84" cy="312.58" r="19.82" transform="translate(-65 66.91) rotate(-13.28)"/><circle class="cls-1" cx="254.84" cy="312.58" r="15.86"/><path class="cls-2" d="M246.7,311.69l4.76,4.76,11.23-11.22a1.06,1.06,0,0,1,1.39,0l1.86,1.86a1.18,1.18,0,0,1-.2,1.31l-13.43,13.36a1.2,1.2,0,0,1-1.9,0l-6.73-6.85a1.18,1.18,0,0,1,0-1.63c.77-.77,1.43-1.47,1.43-1.47S246,311,246.7,311.69Z"/><polygon class="cls-1" points="286.99 109.98 286.99 73.8 318.32 55.71 349.65 73.8 349.65 109.98 318.32 128.07 286.99 109.98"/><path class="cls-2" d="M318.32,56.29l30.83,17.8v35.6l-30.83,17.8-30.83-17.8V74.09l30.83-17.8m0-1.16L286.49,73.51v36.76l31.83,18.38,31.83-18.38V73.51L318.32,55.13Z"/><polygon class="cls-4" points="292.23 106.97 292.23 76.8 318.36 61.71 344.49 76.8 344.49 106.97 318.36 122.06 292.23 106.97"/><path class="cls-2" d="M318.36,63l25,14.46v28.9l-25,14.45-25-14.45V77.44l25-14.46m0-2.54L291.13,76.16v31.45l27.23,15.72,27.23-15.72V76.16L318.36,60.44Z"/><circle class="cls-2" cx="318.5" cy="92.05" r="19.82" transform="translate(-12.63 75.64) rotate(-13.28)"/><circle class="cls-1" cx="318.5" cy="92.05" r="15.86"/><path class="cls-2" d="M310.36,91.15l4.76,4.77,11.23-11.23a1.06,1.06,0,0,1,1.39,0l1.86,1.86a1.19,1.19,0,0,1-.19,1.31L316,101.22a1.19,1.19,0,0,1-1.89,0c-1.07-1.07-6.74-6.85-6.74-6.85a1.18,1.18,0,0,1,0-1.63c.78-.77,1.43-1.47,1.43-1.47S309.64,90.44,310.36,91.15Z"/><polygon class="cls-1" points="318.82 54.85 318.82 18.67 350.15 0.58 381.49 18.67 381.49 54.85 350.15 72.94 318.82 54.85"/><path class="cls-2" d="M350.15,1.15,381,19v35.6l-30.84,17.8-30.83-17.8V19L350.15,1.15m0-1.15L318.32,18.38V55.13l31.83,18.38L382,55.13V18.38L350.15,0Z"/><polygon class="cls-4" points="324.06 51.84 324.06 21.66 350.19 6.58 376.32 21.66 376.32 51.84 350.19 66.92 324.06 51.84"/><path class="cls-2" d="M350.19,7.85l25,14.45V51.2l-25,14.45-25-14.45V22.3l25-14.45m0-2.54L323,21V52.47l27.23,15.72,27.23-15.72V21L350.19,5.31Z"/><circle class="cls-2" cx="350.34" cy="36.91" r="19.82" transform="translate(0.89 81.48) rotate(-13.28)"/><circle class="cls-1" cx="350.34" cy="36.91" r="15.86"/><path class="cls-2" d="M342.19,36,347,40.78l11.23-11.23a1.08,1.08,0,0,1,1.4,0l1.85,1.86a1.2,1.2,0,0,1-.19,1.32L347.81,46.08a1.2,1.2,0,0,1-1.9,0c-1.07-1.06-6.74-6.85-6.74-6.85a1.17,1.17,0,0,1,0-1.62c.78-.78,1.44-1.47,1.44-1.47S341.48,35.3,342.19,36Z"/><polygon class="cls-1" points="191.49 54.85 191.49 18.67 222.82 0.58 254.16 18.67 254.16 54.85 222.82 72.94 191.49 54.85"/><path class="cls-2" d="M222.83,1.15,253.66,19v35.6l-30.83,17.8L192,54.56V19L222.83,1.15m0-1.15L191,18.38V55.13l31.84,18.38,31.83-18.38V18.38L222.83,0Z"/><polygon class="cls-4" points="196.73 51.84 196.73 21.66 222.86 6.58 248.99 21.66 248.99 51.84 222.86 66.92 196.73 51.84"/><path class="cls-2" d="M222.86,7.85l25,14.45V51.2l-25,14.45-25-14.45V22.3l25-14.45m0-2.54L195.63,21V52.47l27.23,15.72,27.23-15.72V21L222.86,5.31Z"/><circle class="cls-2" cx="223.01" cy="36.91" r="19.82" transform="translate(-2.51 52.22) rotate(-13.28)"/><circle class="cls-1" cx="223.01" cy="36.91" r="15.86"/><path class="cls-2" d="M218.17,28.61l4.93,4.9,5-4.9a.87.87,0,0,1,1.22,0l1.83,1.83s.59.82,0,1.42l-4.88,4.82,4.93,5s.49.83,0,1.35-1.78,1.83-1.78,1.83a1,1,0,0,1-1.42,0L223,39.9l-4.84,4.89a.92.92,0,0,1-1.39,0C216,44.05,215,43,215,43s-.56-.79,0-1.35l4.93-4.91-4.83-4.92a1,1,0,0,1,0-1.44l1.73-1.71A.87.87,0,0,1,218.17,28.61Z"/><polygon class="cls-1" points="382.49 165.12 382.49 128.94 413.82 110.85 445.15 128.94 445.15 165.12 413.82 183.21 382.49 165.12"/><path class="cls-2" d="M413.82,111.42l30.83,17.81v35.6l-30.83,17.8L383,164.83v-35.6l30.83-17.81m0-1.15L382,128.65V165.4l31.83,18.38,31.83-18.38V128.65l-31.83-18.38Z"/><polygon class="cls-4" points="387.72 162.11 387.72 131.94 413.85 116.85 439.99 131.94 439.99 162.11 413.85 177.19 387.72 162.11"/><path class="cls-2" d="M413.85,118.12l25,14.45v28.9l-25,14.45-25-14.45v-28.9l25-14.45m0-2.54L386.62,131.3v31.44l27.23,15.72,27.23-15.72V131.3l-27.23-15.72Z"/><circle class="cls-2" cx="414" cy="147.18" r="19.82" transform="translate(-22.74 99.05) rotate(-13.28)"/><circle class="cls-1" cx="414" cy="147.18" r="15.86"/><path class="cls-2" d="M409.16,138.88l4.93,4.9,5-4.9a.86.86,0,0,1,1.21,0l1.83,1.83s.59.82,0,1.42L417.24,147l4.93,5s.49.83,0,1.35-1.78,1.83-1.78,1.83a1,1,0,0,1-1.42,0L414,150.17l-4.84,4.89a.92.92,0,0,1-1.39,0c-.74-.74-1.83-1.78-1.83-1.78s-.56-.79,0-1.35l4.93-4.91L406,142.1a1,1,0,0,1,0-1.44l1.73-1.71A.87.87,0,0,1,409.16,138.88Z"/><polygon class="cls-1" points="32.33 330.52 32.33 294.34 63.66 276.25 95 294.34 95 330.52 63.66 348.61 32.33 330.52"/><path class="cls-2" d="M63.66,276.83l30.84,17.8v35.6L63.66,348l-30.83-17.8v-35.6l30.83-17.8m0-1.16L31.83,294.05v36.76l31.83,18.38L95.5,330.81V294.05L63.66,275.67Z"/><polygon class="cls-4" points="37.57 327.51 37.57 297.34 63.7 282.25 89.83 297.34 89.83 327.51 63.7 342.6 37.57 327.51"/><path class="cls-2" d="M63.7,283.52l25,14.45v28.91l-25,14.45-25-14.45V298l25-14.45m0-2.54L36.47,296.7v31.45L63.7,343.87l27.23-15.72V296.7L63.7,281Z"/><circle class="cls-2" cx="63.85" cy="312.58" r="19.82" transform="translate(-70.11 23.03) rotate(-13.28)"/><circle class="cls-1" cx="63.85" cy="312.58" r="15.86"/><path class="cls-2" d="M59,304.28l4.93,4.9,5-4.9a.87.87,0,0,1,1.21,0L72,306.11s.59.83,0,1.42l-4.88,4.83,4.93,5s.49.83,0,1.34l-1.78,1.83a1,1,0,0,1-1.42,0l-4.94-4.94L59,320.46a.92.92,0,0,1-1.39,0c-.74-.73-1.84-1.78-1.84-1.78s-.55-.79,0-1.34l4.93-4.91-4.82-4.92a1,1,0,0,1,0-1.45c.69-.7,1.73-1.7,1.73-1.7A.88.88,0,0,1,59,304.28Z"/><polygon class="cls-1" points="255.16 275.39 255.16 239.21 286.49 221.12 317.82 239.21 317.82 275.39 286.49 293.48 255.16 275.39"/><path class="cls-2" d="M286.49,221.69l30.83,17.81v35.6l-30.83,17.8-30.83-17.8V239.5l30.83-17.81m0-1.15-31.83,18.38v36.75l31.83,18.38,31.83-18.38V238.92l-31.83-18.38Z"/><polygon class="cls-4" points="260.4 272.38 260.4 242.2 286.53 227.12 312.66 242.2 312.66 272.38 286.53 287.46 260.4 272.38"/><path class="cls-2" d="M286.53,228.39l25,14.45v28.9l-25,14.45-25-14.45v-28.9l25-14.45m0-2.54L259.3,241.57V273l27.23,15.72L313.76,273V241.57l-27.23-15.72Z"/><circle class="cls-2" cx="286.67" cy="257.45" r="19.82" transform="translate(-51.48 72.75) rotate(-13.28)"/><circle class="cls-1" cx="286.67" cy="257.45" r="15.86"/><path class="cls-2" d="M281.84,249.14l4.93,4.91,5-4.91a.87.87,0,0,1,1.21,0l1.83,1.84s.6.82,0,1.42l-4.88,4.82,4.93,5s.49.83,0,1.35-1.78,1.83-1.78,1.83a1,1,0,0,1-1.42,0l-4.94-4.94-4.84,4.89a.93.93,0,0,1-1.4,0c-.73-.74-1.83-1.78-1.83-1.78s-.56-.79,0-1.35l4.93-4.91-4.83-4.92a1,1,0,0,1,0-1.44l1.73-1.71A.89.89,0,0,1,281.84,249.14Z"/></g></g></svg>